# xmcd CD database file
#
# Track frame offsets:
#	150
#	14911
#	27873
#	42155
#	55747
#	67311
#	84120
#	96997
#	111345
#	126232
#	137908
#	148947
#	161620
#	172726
#	187654
#	197791
#	208638
#	223464
#	238359
#	252117
#	264961
#	280476
#	293970
#	310482
#	322935
#
# Disc length: 4546 seconds
#
# Revision: 0
# Processed by: cddbd v1.5.2PL0 Copyright (c) Steve Scherf et al.
# Submitted via: CDex 1.70beta2
#
DISCID=8711c019
DTITLE=Django Reinhardt - I Got Rhythm
DYEAR=2007
DGENRE=Jazz
TTITLE0=Minor Swing
TTITLE1=Night And Day
TTITLE2=Solitude
TTITLE3=Crazy Rhythm
TTITLE4=Fleur D'ennui
TTITLE5=I Surrender Dear
TTITLE6=It's Only A Paper Moon
TTITLE7=Lover Man
TTITLE8=Nuages
TTITLE9=September Song
TTITLE10=Swing '42
TTITLE11=All Of Me
TTITLE12=Brazil
TTITLE13=Lentement, Mademoiselle
TTITLE14=Les Yeux Noirs
TTITLE15=Montmarte
TTITLE16=Oh Lady Be Good
TTITLE17=Petit Mensonges (Little White Lies)
TTITLE18=Swing De Paris
TTITLE19=Sweet Sue, Just You
TTITLE20=Chicago
TTITLE21=Japanese Sandman
TTITLE22=Confessin'
TTITLE23=I Got Rhythm
TTITLE24=Honeysuckle Rose
EXTD=YEAR: 2007
EXTT0=
EXTT1=
EXTT2=
EXTT3=
EXTT4=
EXTT5=
EXTT6=
EXTT7=
EXTT8=
EXTT9=
EXTT10=
EXTT11=
EXTT12=
EXTT13=
EXTT14=
EXTT15=
EXTT16=
EXTT17=
EXTT18=
EXTT19=
EXTT20=
EXTT21=
EXTT22=
EXTT23=
EXTT24=
PLAYORDER=
